<mxfile host="Electron" agent="Mozilla/5.0 (Windows NT 10.0; Win64; x64) AppleWebKit/537.36 (KHTML, like Gecko) draw.io/28.2.5 Chrome/138.0.7204.251 Electron/37.6.1 Safari/537.36" version="28.2.5">
  <diagram name="Page-1" id="c4acf3e9-155e-7222-9cf6-157b1a14988f">
    <mxGraphModel dx="1890" dy="1911" grid="1" gridSize="10" guides="1" tooltips="1" connect="1" arrows="1" fold="1" page="1" pageScale="1" pageWidth="850" pageHeight="1100" background="none" math="0" shadow="0">
      <root>
        <mxCell id="0" />
        <mxCell id="1" parent="0" />
        <mxCell id="wXAxOGZ1mU8DHfjWl0_P-1" value="BurnerMotor" style="swimlane;fontStyle=1;align=center;verticalAlign=top;childLayout=stackLayout;horizontal=1;startSize=26;horizontalStack=0;resizeParent=1;resizeParentMax=0;resizeLast=0;collapsible=1;marginBottom=0;whiteSpace=wrap;html=1;" parent="1" vertex="1">
          <mxGeometry x="-30" y="816" width="160" height="242" as="geometry" />
        </mxCell>
        <mxCell id="wXAxOGZ1mU8DHfjWl0_P-2" value="+ Fuel: String&lt;br&gt;&lt;div&gt;&lt;br&gt;&lt;/div&gt;" style="text;strokeColor=none;fillColor=none;align=left;verticalAlign=top;spacingLeft=4;spacingRight=4;overflow=hidden;rotatable=0;points=[[0,0.5],[1,0.5]];portConstraint=eastwest;whiteSpace=wrap;html=1;" parent="wXAxOGZ1mU8DHfjWl0_P-1" vertex="1">
          <mxGeometry y="26" width="160" height="26" as="geometry" />
        </mxCell>
        <mxCell id="wXAxOGZ1mU8DHfjWl0_P-26" value="+ EngineCapacity: Int" style="text;strokeColor=none;fillColor=none;align=left;verticalAlign=top;spacingLeft=4;spacingRight=4;overflow=hidden;rotatable=0;points=[[0,0.5],[1,0.5]];portConstraint=eastwest;whiteSpace=wrap;html=1;" parent="wXAxOGZ1mU8DHfjWl0_P-1" vertex="1">
          <mxGeometry y="52" width="160" height="26" as="geometry" />
        </mxCell>
        <mxCell id="wXAxOGZ1mU8DHfjWl0_P-25" value="+ Cylinders: int" style="text;strokeColor=none;fillColor=none;align=left;verticalAlign=top;spacingLeft=4;spacingRight=4;overflow=hidden;rotatable=0;points=[[0,0.5],[1,0.5]];portConstraint=eastwest;whiteSpace=wrap;html=1;" parent="wXAxOGZ1mU8DHfjWl0_P-1" vertex="1">
          <mxGeometry y="78" width="160" height="26" as="geometry" />
        </mxCell>
        <mxCell id="wXAxOGZ1mU8DHfjWl0_P-78" value="+ Gears: int" style="text;strokeColor=none;fillColor=none;align=left;verticalAlign=top;spacingLeft=4;spacingRight=4;overflow=hidden;rotatable=0;points=[[0,0.5],[1,0.5]];portConstraint=eastwest;whiteSpace=wrap;html=1;" parent="wXAxOGZ1mU8DHfjWl0_P-1" vertex="1">
          <mxGeometry y="104" width="160" height="26" as="geometry" />
        </mxCell>
        <mxCell id="wXAxOGZ1mU8DHfjWl0_P-79" value="+ Transmission: String" style="text;strokeColor=none;fillColor=none;align=left;verticalAlign=top;spacingLeft=4;spacingRight=4;overflow=hidden;rotatable=0;points=[[0,0.5],[1,0.5]];portConstraint=eastwest;whiteSpace=wrap;html=1;" parent="wXAxOGZ1mU8DHfjWl0_P-1" vertex="1">
          <mxGeometry y="130" width="160" height="26" as="geometry" />
        </mxCell>
        <mxCell id="wXAxOGZ1mU8DHfjWl0_P-81" value="+ Aspiration: String" style="text;strokeColor=none;fillColor=none;align=left;verticalAlign=top;spacingLeft=4;spacingRight=4;overflow=hidden;rotatable=0;points=[[0,0.5],[1,0.5]];portConstraint=eastwest;whiteSpace=wrap;html=1;" parent="wXAxOGZ1mU8DHfjWl0_P-1" vertex="1">
          <mxGeometry y="156" width="160" height="26" as="geometry" />
        </mxCell>
        <mxCell id="wXAxOGZ1mU8DHfjWl0_P-83" value="+ MotorType: String" style="text;strokeColor=none;fillColor=none;align=left;verticalAlign=top;spacingLeft=4;spacingRight=4;overflow=hidden;rotatable=0;points=[[0,0.5],[1,0.5]];portConstraint=eastwest;whiteSpace=wrap;html=1;" parent="wXAxOGZ1mU8DHfjWl0_P-1" vertex="1">
          <mxGeometry y="182" width="160" height="26" as="geometry" />
        </mxCell>
        <mxCell id="wXAxOGZ1mU8DHfjWl0_P-3" value="" style="line;strokeWidth=1;fillColor=none;align=left;verticalAlign=middle;spacingTop=-1;spacingLeft=3;spacingRight=3;rotatable=0;labelPosition=right;points=[];portConstraint=eastwest;strokeColor=inherit;" parent="wXAxOGZ1mU8DHfjWl0_P-1" vertex="1">
          <mxGeometry y="208" width="160" height="8" as="geometry" />
        </mxCell>
        <mxCell id="wXAxOGZ1mU8DHfjWl0_P-4" value="+ start(): Motor" style="text;strokeColor=none;fillColor=none;align=left;verticalAlign=top;spacingLeft=4;spacingRight=4;overflow=hidden;rotatable=0;points=[[0,0.5],[1,0.5]];portConstraint=eastwest;whiteSpace=wrap;html=1;" parent="wXAxOGZ1mU8DHfjWl0_P-1" vertex="1">
          <mxGeometry y="216" width="160" height="26" as="geometry" />
        </mxCell>
        <mxCell id="wXAxOGZ1mU8DHfjWl0_P-5" value="Chassis" style="swimlane;fontStyle=1;align=center;verticalAlign=top;childLayout=stackLayout;horizontal=1;startSize=26;horizontalStack=0;resizeParent=1;resizeParentMax=0;resizeLast=0;collapsible=1;marginBottom=0;whiteSpace=wrap;html=1;" parent="1" vertex="1">
          <mxGeometry x="237.5" y="660" width="160" height="138" as="geometry" />
        </mxCell>
        <mxCell id="wXAxOGZ1mU8DHfjWl0_P-6" value="+ frameMaterial: String" style="text;strokeColor=none;fillColor=none;align=left;verticalAlign=top;spacingLeft=4;spacingRight=4;overflow=hidden;rotatable=0;points=[[0,0.5],[1,0.5]];portConstraint=eastwest;whiteSpace=wrap;html=1;" parent="wXAxOGZ1mU8DHfjWl0_P-5" vertex="1">
          <mxGeometry y="26" width="160" height="26" as="geometry" />
        </mxCell>
        <mxCell id="wXAxOGZ1mU8DHfjWl0_P-85" style="text;strokeColor=none;fillColor=none;align=left;verticalAlign=top;spacingLeft=4;spacingRight=4;overflow=hidden;rotatable=0;points=[[0,0.5],[1,0.5]];portConstraint=eastwest;whiteSpace=wrap;html=1;" parent="wXAxOGZ1mU8DHfjWl0_P-5" vertex="1">
          <mxGeometry y="52" width="160" height="26" as="geometry" />
        </mxCell>
        <mxCell id="wXAxOGZ1mU8DHfjWl0_P-84" style="text;strokeColor=none;fillColor=none;align=left;verticalAlign=top;spacingLeft=4;spacingRight=4;overflow=hidden;rotatable=0;points=[[0,0.5],[1,0.5]];portConstraint=eastwest;whiteSpace=wrap;html=1;" parent="wXAxOGZ1mU8DHfjWl0_P-5" vertex="1">
          <mxGeometry y="78" width="160" height="26" as="geometry" />
        </mxCell>
        <mxCell id="wXAxOGZ1mU8DHfjWl0_P-7" value="" style="line;strokeWidth=1;fillColor=none;align=left;verticalAlign=middle;spacingTop=-1;spacingLeft=3;spacingRight=3;rotatable=0;labelPosition=right;points=[];portConstraint=eastwest;strokeColor=inherit;" parent="wXAxOGZ1mU8DHfjWl0_P-5" vertex="1">
          <mxGeometry y="104" width="160" height="8" as="geometry" />
        </mxCell>
        <mxCell id="wXAxOGZ1mU8DHfjWl0_P-8" value="+ method(type): type" style="text;strokeColor=none;fillColor=none;align=left;verticalAlign=top;spacingLeft=4;spacingRight=4;overflow=hidden;rotatable=0;points=[[0,0.5],[1,0.5]];portConstraint=eastwest;whiteSpace=wrap;html=1;" parent="wXAxOGZ1mU8DHfjWl0_P-5" vertex="1">
          <mxGeometry y="112" width="160" height="26" as="geometry" />
        </mxCell>
        <mxCell id="wXAxOGZ1mU8DHfjWl0_P-13" value="Hatchback&lt;span style=&quot;color: rgba(0, 0, 0, 0); font-family: monospace; font-size: 0px; font-weight: 400; text-align: start; text-wrap: nowrap;&quot;&gt;%3CmxGraphModel%3E%3Croot%3E%3CmxCell%20id%3D%220%22%2F%3E%3CmxCell%20id%3D%221%22%20parent%3D%220%22%2F%3E%3CmxCell%20id%3D%222%22%20value%3D%22Type%22%20style%3D%22swimlane%3BfontStyle%3D1%3Balign%3Dcenter%3BverticalAlign%3Dtop%3BchildLayout%3DstackLayout%3Bhorizontal%3D1%3BstartSize%3D26%3BhorizontalStack%3D0%3BresizeParent%3D1%3BresizeParentMax%3D0%3BresizeLast%3D0%3Bcollapsible%3D1%3BmarginBottom%3D0%3BwhiteSpace%3Dwrap%3Bhtml%3D1%3B%22%20vertex%3D%221%22%20parent%3D%221%22%3E%3CmxGeometry%20x%3D%22490%22%20y%3D%22370%22%20width%3D%22160%22%20height%3D%2286%22%20as%3D%22geometry%22%2F%3E%3C%2FmxCell%3E%3CmxCell%20id%3D%223%22%20value%3D%22%2B%20field%3A%20type%22%20style%3D%22text%3BstrokeColor%3Dnone%3BfillColor%3Dnone%3Balign%3Dleft%3BverticalAlign%3Dtop%3BspacingLeft%3D4%3BspacingRight%3D4%3Boverflow%3Dhidden%3Brotatable%3D0%3Bpoints%3D%5B%5B0%2C0.5%5D%2C%5B1%2C0.5%5D%5D%3BportConstraint%3Deastwest%3BwhiteSpace%3Dwrap%3Bhtml%3D1%3B%22%20vertex%3D%221%22%20parent%3D%222%22%3E%3CmxGeometry%20y%3D%2226%22%20width%3D%22160%22%20height%3D%2226%22%20as%3D%22geometry%22%2F%3E%3C%2FmxCell%3E%3CmxCell%20id%3D%224%22%20value%3D%22%22%20style%3D%22line%3BstrokeWidth%3D1%3BfillColor%3Dnone%3Balign%3Dleft%3BverticalAlign%3Dmiddle%3BspacingTop%3D-1%3BspacingLeft%3D3%3BspacingRight%3D3%3Brotatable%3D0%3BlabelPosition%3Dright%3Bpoints%3D%5B%5D%3BportConstraint%3Deastwest%3BstrokeColor%3Dinherit%3B%22%20vertex%3D%221%22%20parent%3D%222%22%3E%3CmxGeometry%20y%3D%2252%22%20width%3D%22160%22%20height%3D%228%22%20as%3D%22geometry%22%2F%3E%3C%2FmxCell%3E%3CmxCell%20id%3D%225%22%20value%3D%22%2B%20method(type)%3A%20type%22%20style%3D%22text%3BstrokeColor%3Dnone%3BfillColor%3Dnone%3Balign%3Dleft%3BverticalAlign%3Dtop%3BspacingLeft%3D4%3BspacingRight%3D4%3Boverflow%3Dhidden%3Brotatable%3D0%3Bpoints%3D%5B%5B0%2C0.5%5D%2C%5B1%2C0.5%5D%5D%3BportConstraint%3Deastwest%3BwhiteSpace%3Dwrap%3Bhtml%3D1%3B%22%20vertex%3D%221%22%20parent%3D%222%22%3E%3CmxGeometry%20y%3D%2260%22%20width%3D%22160%22%20height%3D%2226%22%20as%3D%22geometry%22%2F%3E%3C%2FmxCell%3E%3C%2Froot%3E%3C%2FmxGraphModel%3E&lt;/span&gt;" style="swimlane;fontStyle=1;align=center;verticalAlign=top;childLayout=stackLayout;horizontal=1;startSize=26;horizontalStack=0;resizeParent=1;resizeParentMax=0;resizeLast=0;collapsible=1;marginBottom=0;whiteSpace=wrap;html=1;" parent="1" vertex="1">
          <mxGeometry x="-290" y="124" width="160" height="86" as="geometry" />
        </mxCell>
        <mxCell id="wXAxOGZ1mU8DHfjWl0_P-14" value="+ field: type" style="text;strokeColor=none;fillColor=none;align=left;verticalAlign=top;spacingLeft=4;spacingRight=4;overflow=hidden;rotatable=0;points=[[0,0.5],[1,0.5]];portConstraint=eastwest;whiteSpace=wrap;html=1;" parent="wXAxOGZ1mU8DHfjWl0_P-13" vertex="1">
          <mxGeometry y="26" width="160" height="26" as="geometry" />
        </mxCell>
        <mxCell id="wXAxOGZ1mU8DHfjWl0_P-15" value="" style="line;strokeWidth=1;fillColor=none;align=left;verticalAlign=middle;spacingTop=-1;spacingLeft=3;spacingRight=3;rotatable=0;labelPosition=right;points=[];portConstraint=eastwest;strokeColor=inherit;" parent="wXAxOGZ1mU8DHfjWl0_P-13" vertex="1">
          <mxGeometry y="52" width="160" height="8" as="geometry" />
        </mxCell>
        <mxCell id="wXAxOGZ1mU8DHfjWl0_P-16" value="+ method(type): type" style="text;strokeColor=none;fillColor=none;align=left;verticalAlign=top;spacingLeft=4;spacingRight=4;overflow=hidden;rotatable=0;points=[[0,0.5],[1,0.5]];portConstraint=eastwest;whiteSpace=wrap;html=1;" parent="wXAxOGZ1mU8DHfjWl0_P-13" vertex="1">
          <mxGeometry y="60" width="160" height="26" as="geometry" />
        </mxCell>
        <mxCell id="wXAxOGZ1mU8DHfjWl0_P-30" value="Car" style="swimlane;fontStyle=1;align=center;verticalAlign=top;childLayout=stackLayout;horizontal=1;startSize=26;horizontalStack=0;resizeParent=1;resizeParentMax=0;resizeLast=0;collapsible=1;marginBottom=0;whiteSpace=wrap;html=1;" parent="1" vertex="1">
          <mxGeometry x="360" y="336" width="160" height="190" as="geometry" />
        </mxCell>
        <mxCell id="wXAxOGZ1mU8DHfjWl0_P-31" value="+ brand: String" style="text;strokeColor=none;fillColor=none;align=left;verticalAlign=top;spacingLeft=4;spacingRight=4;overflow=hidden;rotatable=0;points=[[0,0.5],[1,0.5]];portConstraint=eastwest;whiteSpace=wrap;html=1;" parent="wXAxOGZ1mU8DHfjWl0_P-30" vertex="1">
          <mxGeometry y="26" width="160" height="26" as="geometry" />
        </mxCell>
        <mxCell id="wXAxOGZ1mU8DHfjWl0_P-80" value="+ tires: int" style="text;strokeColor=none;fillColor=none;align=left;verticalAlign=top;spacingLeft=4;spacingRight=4;overflow=hidden;rotatable=0;points=[[0,0.5],[1,0.5]];portConstraint=eastwest;whiteSpace=wrap;html=1;" parent="wXAxOGZ1mU8DHfjWl0_P-30" vertex="1">
          <mxGeometry y="52" width="160" height="26" as="geometry" />
        </mxCell>
        <mxCell id="wXAxOGZ1mU8DHfjWl0_P-111" value="+ drive: String" style="text;strokeColor=none;fillColor=none;align=left;verticalAlign=top;spacingLeft=4;spacingRight=4;overflow=hidden;rotatable=0;points=[[0,0.5],[1,0.5]];portConstraint=eastwest;whiteSpace=wrap;html=1;" parent="wXAxOGZ1mU8DHfjWl0_P-30" vertex="1">
          <mxGeometry y="78" width="160" height="26" as="geometry" />
        </mxCell>
        <mxCell id="wXAxOGZ1mU8DHfjWl0_P-82" value="+ towBar: bool" style="text;strokeColor=none;fillColor=none;align=left;verticalAlign=top;spacingLeft=4;spacingRight=4;overflow=hidden;rotatable=0;points=[[0,0.5],[1,0.5]];portConstraint=eastwest;whiteSpace=wrap;html=1;" parent="wXAxOGZ1mU8DHfjWl0_P-30" vertex="1">
          <mxGeometry y="104" width="160" height="26" as="geometry" />
        </mxCell>
        <mxCell id="wXAxOGZ1mU8DHfjWl0_P-112" value="+ seats: int" style="text;strokeColor=none;fillColor=none;align=left;verticalAlign=top;spacingLeft=4;spacingRight=4;overflow=hidden;rotatable=0;points=[[0,0.5],[1,0.5]];portConstraint=eastwest;whiteSpace=wrap;html=1;" parent="wXAxOGZ1mU8DHfjWl0_P-30" vertex="1">
          <mxGeometry y="130" width="160" height="26" as="geometry" />
        </mxCell>
        <mxCell id="wXAxOGZ1mU8DHfjWl0_P-32" value="" style="line;strokeWidth=1;fillColor=none;align=left;verticalAlign=middle;spacingTop=-1;spacingLeft=3;spacingRight=3;rotatable=0;labelPosition=right;points=[];portConstraint=eastwest;strokeColor=inherit;" parent="wXAxOGZ1mU8DHfjWl0_P-30" vertex="1">
          <mxGeometry y="156" width="160" height="8" as="geometry" />
        </mxCell>
        <mxCell id="wXAxOGZ1mU8DHfjWl0_P-33" value="+ method(type): type" style="text;strokeColor=none;fillColor=none;align=left;verticalAlign=top;spacingLeft=4;spacingRight=4;overflow=hidden;rotatable=0;points=[[0,0.5],[1,0.5]];portConstraint=eastwest;whiteSpace=wrap;html=1;" parent="wXAxOGZ1mU8DHfjWl0_P-30" vertex="1">
          <mxGeometry y="164" width="160" height="26" as="geometry" />
        </mxCell>
        <mxCell id="wXAxOGZ1mU8DHfjWl0_P-38" value="Sedan" style="swimlane;fontStyle=1;align=center;verticalAlign=top;childLayout=stackLayout;horizontal=1;startSize=26;horizontalStack=0;resizeParent=1;resizeParentMax=0;resizeLast=0;collapsible=1;marginBottom=0;whiteSpace=wrap;html=1;" parent="1" vertex="1">
          <mxGeometry x="-290" y="234" width="160" height="86" as="geometry" />
        </mxCell>
        <mxCell id="wXAxOGZ1mU8DHfjWl0_P-39" value="+ field: type" style="text;strokeColor=none;fillColor=none;align=left;verticalAlign=top;spacingLeft=4;spacingRight=4;overflow=hidden;rotatable=0;points=[[0,0.5],[1,0.5]];portConstraint=eastwest;whiteSpace=wrap;html=1;" parent="wXAxOGZ1mU8DHfjWl0_P-38" vertex="1">
          <mxGeometry y="26" width="160" height="26" as="geometry" />
        </mxCell>
        <mxCell id="wXAxOGZ1mU8DHfjWl0_P-40" value="" style="line;strokeWidth=1;fillColor=none;align=left;verticalAlign=middle;spacingTop=-1;spacingLeft=3;spacingRight=3;rotatable=0;labelPosition=right;points=[];portConstraint=eastwest;strokeColor=inherit;" parent="wXAxOGZ1mU8DHfjWl0_P-38" vertex="1">
          <mxGeometry y="52" width="160" height="8" as="geometry" />
        </mxCell>
        <mxCell id="wXAxOGZ1mU8DHfjWl0_P-41" value="+ method(type): type" style="text;strokeColor=none;fillColor=none;align=left;verticalAlign=top;spacingLeft=4;spacingRight=4;overflow=hidden;rotatable=0;points=[[0,0.5],[1,0.5]];portConstraint=eastwest;whiteSpace=wrap;html=1;" parent="wXAxOGZ1mU8DHfjWl0_P-38" vertex="1">
          <mxGeometry y="60" width="160" height="26" as="geometry" />
        </mxCell>
        <mxCell id="wXAxOGZ1mU8DHfjWl0_P-42" value="Stationwagon" style="swimlane;fontStyle=1;align=center;verticalAlign=top;childLayout=stackLayout;horizontal=1;startSize=26;horizontalStack=0;resizeParent=1;resizeParentMax=0;resizeLast=0;collapsible=1;marginBottom=0;whiteSpace=wrap;html=1;" parent="1" vertex="1">
          <mxGeometry x="-290" y="-100" width="160" height="86" as="geometry" />
        </mxCell>
        <mxCell id="wXAxOGZ1mU8DHfjWl0_P-43" value="+ field: type" style="text;strokeColor=none;fillColor=none;align=left;verticalAlign=top;spacingLeft=4;spacingRight=4;overflow=hidden;rotatable=0;points=[[0,0.5],[1,0.5]];portConstraint=eastwest;whiteSpace=wrap;html=1;" parent="wXAxOGZ1mU8DHfjWl0_P-42" vertex="1">
          <mxGeometry y="26" width="160" height="26" as="geometry" />
        </mxCell>
        <mxCell id="wXAxOGZ1mU8DHfjWl0_P-44" value="" style="line;strokeWidth=1;fillColor=none;align=left;verticalAlign=middle;spacingTop=-1;spacingLeft=3;spacingRight=3;rotatable=0;labelPosition=right;points=[];portConstraint=eastwest;strokeColor=inherit;" parent="wXAxOGZ1mU8DHfjWl0_P-42" vertex="1">
          <mxGeometry y="52" width="160" height="8" as="geometry" />
        </mxCell>
        <mxCell id="wXAxOGZ1mU8DHfjWl0_P-45" value="+ method(type): type" style="text;strokeColor=none;fillColor=none;align=left;verticalAlign=top;spacingLeft=4;spacingRight=4;overflow=hidden;rotatable=0;points=[[0,0.5],[1,0.5]];portConstraint=eastwest;whiteSpace=wrap;html=1;" parent="wXAxOGZ1mU8DHfjWl0_P-42" vertex="1">
          <mxGeometry y="60" width="160" height="26" as="geometry" />
        </mxCell>
        <mxCell id="wXAxOGZ1mU8DHfjWl0_P-46" value="MPV" style="swimlane;fontStyle=1;align=center;verticalAlign=top;childLayout=stackLayout;horizontal=1;startSize=26;horizontalStack=0;resizeParent=1;resizeParentMax=0;resizeLast=0;collapsible=1;marginBottom=0;whiteSpace=wrap;html=1;" parent="1" vertex="1">
          <mxGeometry x="-290" y="454" width="160" height="86" as="geometry" />
        </mxCell>
        <mxCell id="wXAxOGZ1mU8DHfjWl0_P-47" value="+ field: type" style="text;strokeColor=none;fillColor=none;align=left;verticalAlign=top;spacingLeft=4;spacingRight=4;overflow=hidden;rotatable=0;points=[[0,0.5],[1,0.5]];portConstraint=eastwest;whiteSpace=wrap;html=1;" parent="wXAxOGZ1mU8DHfjWl0_P-46" vertex="1">
          <mxGeometry y="26" width="160" height="26" as="geometry" />
        </mxCell>
        <mxCell id="wXAxOGZ1mU8DHfjWl0_P-48" value="" style="line;strokeWidth=1;fillColor=none;align=left;verticalAlign=middle;spacingTop=-1;spacingLeft=3;spacingRight=3;rotatable=0;labelPosition=right;points=[];portConstraint=eastwest;strokeColor=inherit;" parent="wXAxOGZ1mU8DHfjWl0_P-46" vertex="1">
          <mxGeometry y="52" width="160" height="8" as="geometry" />
        </mxCell>
        <mxCell id="wXAxOGZ1mU8DHfjWl0_P-49" value="+ method(type): type" style="text;strokeColor=none;fillColor=none;align=left;verticalAlign=top;spacingLeft=4;spacingRight=4;overflow=hidden;rotatable=0;points=[[0,0.5],[1,0.5]];portConstraint=eastwest;whiteSpace=wrap;html=1;" parent="wXAxOGZ1mU8DHfjWl0_P-46" vertex="1">
          <mxGeometry y="60" width="160" height="26" as="geometry" />
        </mxCell>
        <mxCell id="wXAxOGZ1mU8DHfjWl0_P-50" value="SUV" style="swimlane;fontStyle=1;align=center;verticalAlign=top;childLayout=stackLayout;horizontal=1;startSize=26;horizontalStack=0;resizeParent=1;resizeParentMax=0;resizeLast=0;collapsible=1;marginBottom=0;whiteSpace=wrap;html=1;" parent="1" vertex="1">
          <mxGeometry x="-290" y="564" width="160" height="86" as="geometry" />
        </mxCell>
        <mxCell id="wXAxOGZ1mU8DHfjWl0_P-51" value="+ field: type" style="text;strokeColor=none;fillColor=none;align=left;verticalAlign=top;spacingLeft=4;spacingRight=4;overflow=hidden;rotatable=0;points=[[0,0.5],[1,0.5]];portConstraint=eastwest;whiteSpace=wrap;html=1;" parent="wXAxOGZ1mU8DHfjWl0_P-50" vertex="1">
          <mxGeometry y="26" width="160" height="26" as="geometry" />
        </mxCell>
        <mxCell id="wXAxOGZ1mU8DHfjWl0_P-52" value="" style="line;strokeWidth=1;fillColor=none;align=left;verticalAlign=middle;spacingTop=-1;spacingLeft=3;spacingRight=3;rotatable=0;labelPosition=right;points=[];portConstraint=eastwest;strokeColor=inherit;" parent="wXAxOGZ1mU8DHfjWl0_P-50" vertex="1">
          <mxGeometry y="52" width="160" height="8" as="geometry" />
        </mxCell>
        <mxCell id="wXAxOGZ1mU8DHfjWl0_P-53" value="+ method(type): type" style="text;strokeColor=none;fillColor=none;align=left;verticalAlign=top;spacingLeft=4;spacingRight=4;overflow=hidden;rotatable=0;points=[[0,0.5],[1,0.5]];portConstraint=eastwest;whiteSpace=wrap;html=1;" parent="wXAxOGZ1mU8DHfjWl0_P-50" vertex="1">
          <mxGeometry y="60" width="160" height="26" as="geometry" />
        </mxCell>
        <mxCell id="wXAxOGZ1mU8DHfjWl0_P-58" value="Cabrio" style="swimlane;fontStyle=1;align=center;verticalAlign=top;childLayout=stackLayout;horizontal=1;startSize=26;horizontalStack=0;resizeParent=1;resizeParentMax=0;resizeLast=0;collapsible=1;marginBottom=0;whiteSpace=wrap;html=1;" parent="1" vertex="1">
          <mxGeometry x="-290" y="14" width="160" height="86" as="geometry" />
        </mxCell>
        <mxCell id="wXAxOGZ1mU8DHfjWl0_P-59" value="+ field: type" style="text;strokeColor=none;fillColor=none;align=left;verticalAlign=top;spacingLeft=4;spacingRight=4;overflow=hidden;rotatable=0;points=[[0,0.5],[1,0.5]];portConstraint=eastwest;whiteSpace=wrap;html=1;" parent="wXAxOGZ1mU8DHfjWl0_P-58" vertex="1">
          <mxGeometry y="26" width="160" height="26" as="geometry" />
        </mxCell>
        <mxCell id="wXAxOGZ1mU8DHfjWl0_P-60" value="" style="line;strokeWidth=1;fillColor=none;align=left;verticalAlign=middle;spacingTop=-1;spacingLeft=3;spacingRight=3;rotatable=0;labelPosition=right;points=[];portConstraint=eastwest;strokeColor=inherit;" parent="wXAxOGZ1mU8DHfjWl0_P-58" vertex="1">
          <mxGeometry y="52" width="160" height="8" as="geometry" />
        </mxCell>
        <mxCell id="wXAxOGZ1mU8DHfjWl0_P-61" value="+ method(type): type" style="text;strokeColor=none;fillColor=none;align=left;verticalAlign=top;spacingLeft=4;spacingRight=4;overflow=hidden;rotatable=0;points=[[0,0.5],[1,0.5]];portConstraint=eastwest;whiteSpace=wrap;html=1;" parent="wXAxOGZ1mU8DHfjWl0_P-58" vertex="1">
          <mxGeometry y="60" width="160" height="26" as="geometry" />
        </mxCell>
        <mxCell id="wXAxOGZ1mU8DHfjWl0_P-62" value="4x4" style="swimlane;fontStyle=1;align=center;verticalAlign=top;childLayout=stackLayout;horizontal=1;startSize=26;horizontalStack=0;resizeParent=1;resizeParentMax=0;resizeLast=0;collapsible=1;marginBottom=0;whiteSpace=wrap;html=1;" parent="1" vertex="1">
          <mxGeometry x="-290" y="788" width="160" height="86" as="geometry" />
        </mxCell>
        <mxCell id="wXAxOGZ1mU8DHfjWl0_P-63" value="+ field: type" style="text;strokeColor=none;fillColor=none;align=left;verticalAlign=top;spacingLeft=4;spacingRight=4;overflow=hidden;rotatable=0;points=[[0,0.5],[1,0.5]];portConstraint=eastwest;whiteSpace=wrap;html=1;" parent="wXAxOGZ1mU8DHfjWl0_P-62" vertex="1">
          <mxGeometry y="26" width="160" height="26" as="geometry" />
        </mxCell>
        <mxCell id="wXAxOGZ1mU8DHfjWl0_P-64" value="" style="line;strokeWidth=1;fillColor=none;align=left;verticalAlign=middle;spacingTop=-1;spacingLeft=3;spacingRight=3;rotatable=0;labelPosition=right;points=[];portConstraint=eastwest;strokeColor=inherit;" parent="wXAxOGZ1mU8DHfjWl0_P-62" vertex="1">
          <mxGeometry y="52" width="160" height="8" as="geometry" />
        </mxCell>
        <mxCell id="wXAxOGZ1mU8DHfjWl0_P-65" value="+ method(type): type" style="text;strokeColor=none;fillColor=none;align=left;verticalAlign=top;spacingLeft=4;spacingRight=4;overflow=hidden;rotatable=0;points=[[0,0.5],[1,0.5]];portConstraint=eastwest;whiteSpace=wrap;html=1;" parent="wXAxOGZ1mU8DHfjWl0_P-62" vertex="1">
          <mxGeometry y="60" width="160" height="26" as="geometry" />
        </mxCell>
        <mxCell id="wXAxOGZ1mU8DHfjWl0_P-66" value="Ute" style="swimlane;fontStyle=1;align=center;verticalAlign=top;childLayout=stackLayout;horizontal=1;startSize=26;horizontalStack=0;resizeParent=1;resizeParentMax=0;resizeLast=0;collapsible=1;marginBottom=0;whiteSpace=wrap;html=1;" parent="1" vertex="1">
          <mxGeometry x="-290" y="894" width="160" height="86" as="geometry" />
        </mxCell>
        <mxCell id="wXAxOGZ1mU8DHfjWl0_P-67" value="+ field: type" style="text;strokeColor=none;fillColor=none;align=left;verticalAlign=top;spacingLeft=4;spacingRight=4;overflow=hidden;rotatable=0;points=[[0,0.5],[1,0.5]];portConstraint=eastwest;whiteSpace=wrap;html=1;" parent="wXAxOGZ1mU8DHfjWl0_P-66" vertex="1">
          <mxGeometry y="26" width="160" height="26" as="geometry" />
        </mxCell>
        <mxCell id="wXAxOGZ1mU8DHfjWl0_P-68" value="" style="line;strokeWidth=1;fillColor=none;align=left;verticalAlign=middle;spacingTop=-1;spacingLeft=3;spacingRight=3;rotatable=0;labelPosition=right;points=[];portConstraint=eastwest;strokeColor=inherit;" parent="wXAxOGZ1mU8DHfjWl0_P-66" vertex="1">
          <mxGeometry y="52" width="160" height="8" as="geometry" />
        </mxCell>
        <mxCell id="wXAxOGZ1mU8DHfjWl0_P-69" value="+ method(type): type" style="text;strokeColor=none;fillColor=none;align=left;verticalAlign=top;spacingLeft=4;spacingRight=4;overflow=hidden;rotatable=0;points=[[0,0.5],[1,0.5]];portConstraint=eastwest;whiteSpace=wrap;html=1;" parent="wXAxOGZ1mU8DHfjWl0_P-66" vertex="1">
          <mxGeometry y="60" width="160" height="26" as="geometry" />
        </mxCell>
        <mxCell id="wXAxOGZ1mU8DHfjWl0_P-70" value="Pick-up" style="swimlane;fontStyle=1;align=center;verticalAlign=top;childLayout=stackLayout;horizontal=1;startSize=26;horizontalStack=0;resizeParent=1;resizeParentMax=0;resizeLast=0;collapsible=1;marginBottom=0;whiteSpace=wrap;html=1;" parent="1" vertex="1">
          <mxGeometry x="-290" y="671" width="160" height="86" as="geometry" />
        </mxCell>
        <mxCell id="wXAxOGZ1mU8DHfjWl0_P-71" value="+ field: type" style="text;strokeColor=none;fillColor=none;align=left;verticalAlign=top;spacingLeft=4;spacingRight=4;overflow=hidden;rotatable=0;points=[[0,0.5],[1,0.5]];portConstraint=eastwest;whiteSpace=wrap;html=1;" parent="wXAxOGZ1mU8DHfjWl0_P-70" vertex="1">
          <mxGeometry y="26" width="160" height="26" as="geometry" />
        </mxCell>
        <mxCell id="wXAxOGZ1mU8DHfjWl0_P-72" value="" style="line;strokeWidth=1;fillColor=none;align=left;verticalAlign=middle;spacingTop=-1;spacingLeft=3;spacingRight=3;rotatable=0;labelPosition=right;points=[];portConstraint=eastwest;strokeColor=inherit;" parent="wXAxOGZ1mU8DHfjWl0_P-70" vertex="1">
          <mxGeometry y="52" width="160" height="8" as="geometry" />
        </mxCell>
        <mxCell id="wXAxOGZ1mU8DHfjWl0_P-73" value="+ method(type): type" style="text;strokeColor=none;fillColor=none;align=left;verticalAlign=top;spacingLeft=4;spacingRight=4;overflow=hidden;rotatable=0;points=[[0,0.5],[1,0.5]];portConstraint=eastwest;whiteSpace=wrap;html=1;" parent="wXAxOGZ1mU8DHfjWl0_P-70" vertex="1">
          <mxGeometry y="60" width="160" height="26" as="geometry" />
        </mxCell>
        <mxCell id="wXAxOGZ1mU8DHfjWl0_P-74" value="Coupe" style="swimlane;fontStyle=1;align=center;verticalAlign=top;childLayout=stackLayout;horizontal=1;startSize=26;horizontalStack=0;resizeParent=1;resizeParentMax=0;resizeLast=0;collapsible=1;marginBottom=0;whiteSpace=wrap;html=1;" parent="1" vertex="1">
          <mxGeometry x="-290" y="344" width="160" height="86" as="geometry" />
        </mxCell>
        <mxCell id="wXAxOGZ1mU8DHfjWl0_P-75" value="+ field: type" style="text;strokeColor=none;fillColor=none;align=left;verticalAlign=top;spacingLeft=4;spacingRight=4;overflow=hidden;rotatable=0;points=[[0,0.5],[1,0.5]];portConstraint=eastwest;whiteSpace=wrap;html=1;" parent="wXAxOGZ1mU8DHfjWl0_P-74" vertex="1">
          <mxGeometry y="26" width="160" height="26" as="geometry" />
        </mxCell>
        <mxCell id="wXAxOGZ1mU8DHfjWl0_P-76" value="" style="line;strokeWidth=1;fillColor=none;align=left;verticalAlign=middle;spacingTop=-1;spacingLeft=3;spacingRight=3;rotatable=0;labelPosition=right;points=[];portConstraint=eastwest;strokeColor=inherit;" parent="wXAxOGZ1mU8DHfjWl0_P-74" vertex="1">
          <mxGeometry y="52" width="160" height="8" as="geometry" />
        </mxCell>
        <mxCell id="wXAxOGZ1mU8DHfjWl0_P-77" value="+ method(type): type" style="text;strokeColor=none;fillColor=none;align=left;verticalAlign=top;spacingLeft=4;spacingRight=4;overflow=hidden;rotatable=0;points=[[0,0.5],[1,0.5]];portConstraint=eastwest;whiteSpace=wrap;html=1;" parent="wXAxOGZ1mU8DHfjWl0_P-74" vertex="1">
          <mxGeometry y="60" width="160" height="26" as="geometry" />
        </mxCell>
        <mxCell id="wXAxOGZ1mU8DHfjWl0_P-86" value="Systems" style="swimlane;fontStyle=1;align=center;verticalAlign=top;childLayout=stackLayout;horizontal=1;startSize=26;horizontalStack=0;resizeParent=1;resizeParentMax=0;resizeLast=0;collapsible=1;marginBottom=0;whiteSpace=wrap;html=1;" parent="1" vertex="1">
          <mxGeometry x="680" y="660" width="160" height="320" as="geometry" />
        </mxCell>
        <mxCell id="wXAxOGZ1mU8DHfjWl0_P-87" value="+ parkassist: bool" style="text;strokeColor=none;fillColor=none;align=left;verticalAlign=top;spacingLeft=4;spacingRight=4;overflow=hidden;rotatable=0;points=[[0,0.5],[1,0.5]];portConstraint=eastwest;whiteSpace=wrap;html=1;" parent="wXAxOGZ1mU8DHfjWl0_P-86" vertex="1">
          <mxGeometry y="26" width="160" height="26" as="geometry" />
        </mxCell>
        <mxCell id="wXAxOGZ1mU8DHfjWl0_P-88" value="+ ABS: bool" style="text;strokeColor=none;fillColor=none;align=left;verticalAlign=top;spacingLeft=4;spacingRight=4;overflow=hidden;rotatable=0;points=[[0,0.5],[1,0.5]];portConstraint=eastwest;whiteSpace=wrap;html=1;" parent="wXAxOGZ1mU8DHfjWl0_P-86" vertex="1">
          <mxGeometry y="52" width="160" height="26" as="geometry" />
        </mxCell>
        <mxCell id="wXAxOGZ1mU8DHfjWl0_P-89" value="+ TCS: bool" style="text;strokeColor=none;fillColor=none;align=left;verticalAlign=top;spacingLeft=4;spacingRight=4;overflow=hidden;rotatable=0;points=[[0,0.5],[1,0.5]];portConstraint=eastwest;whiteSpace=wrap;html=1;" parent="wXAxOGZ1mU8DHfjWl0_P-86" vertex="1">
          <mxGeometry y="78" width="160" height="26" as="geometry" />
        </mxCell>
        <mxCell id="wXAxOGZ1mU8DHfjWl0_P-92" value="+ ISA: bool" style="text;strokeColor=none;fillColor=none;align=left;verticalAlign=top;spacingLeft=4;spacingRight=4;overflow=hidden;rotatable=0;points=[[0,0.5],[1,0.5]];portConstraint=eastwest;whiteSpace=wrap;html=1;" parent="wXAxOGZ1mU8DHfjWl0_P-86" vertex="1">
          <mxGeometry y="104" width="160" height="26" as="geometry" />
        </mxCell>
        <mxCell id="wXAxOGZ1mU8DHfjWl0_P-95" value="+ Lane Assist: bool" style="text;strokeColor=none;fillColor=none;align=left;verticalAlign=top;spacingLeft=4;spacingRight=4;overflow=hidden;rotatable=0;points=[[0,0.5],[1,0.5]];portConstraint=eastwest;whiteSpace=wrap;html=1;" parent="wXAxOGZ1mU8DHfjWl0_P-86" vertex="1">
          <mxGeometry y="130" width="160" height="26" as="geometry" />
        </mxCell>
        <mxCell id="wXAxOGZ1mU8DHfjWl0_P-94" value="+ Start-Stop: bool" style="text;strokeColor=none;fillColor=none;align=left;verticalAlign=top;spacingLeft=4;spacingRight=4;overflow=hidden;rotatable=0;points=[[0,0.5],[1,0.5]];portConstraint=eastwest;whiteSpace=wrap;html=1;" parent="wXAxOGZ1mU8DHfjWl0_P-86" vertex="1">
          <mxGeometry y="156" width="160" height="26" as="geometry" />
        </mxCell>
        <mxCell id="wXAxOGZ1mU8DHfjWl0_P-93" value="+ Cruise Control: bool" style="text;strokeColor=none;fillColor=none;align=left;verticalAlign=top;spacingLeft=4;spacingRight=4;overflow=hidden;rotatable=0;points=[[0,0.5],[1,0.5]];portConstraint=eastwest;whiteSpace=wrap;html=1;" parent="wXAxOGZ1mU8DHfjWl0_P-86" vertex="1">
          <mxGeometry y="182" width="160" height="26" as="geometry" />
        </mxCell>
        <mxCell id="wXAxOGZ1mU8DHfjWl0_P-97" value="+ ACC: bool" style="text;strokeColor=none;fillColor=none;align=left;verticalAlign=top;spacingLeft=4;spacingRight=4;overflow=hidden;rotatable=0;points=[[0,0.5],[1,0.5]];portConstraint=eastwest;whiteSpace=wrap;html=1;" parent="wXAxOGZ1mU8DHfjWl0_P-86" vertex="1">
          <mxGeometry y="208" width="160" height="26" as="geometry" />
        </mxCell>
        <mxCell id="wXAxOGZ1mU8DHfjWl0_P-96" value="+ AEB: bool" style="text;strokeColor=none;fillColor=none;align=left;verticalAlign=top;spacingLeft=4;spacingRight=4;overflow=hidden;rotatable=0;points=[[0,0.5],[1,0.5]];portConstraint=eastwest;whiteSpace=wrap;html=1;" parent="wXAxOGZ1mU8DHfjWl0_P-86" vertex="1">
          <mxGeometry y="234" width="160" height="26" as="geometry" />
        </mxCell>
        <mxCell id="wXAxOGZ1mU8DHfjWl0_P-98" style="text;strokeColor=none;fillColor=none;align=left;verticalAlign=top;spacingLeft=4;spacingRight=4;overflow=hidden;rotatable=0;points=[[0,0.5],[1,0.5]];portConstraint=eastwest;whiteSpace=wrap;html=1;" parent="wXAxOGZ1mU8DHfjWl0_P-86" vertex="1">
          <mxGeometry y="260" width="160" height="26" as="geometry" />
        </mxCell>
        <mxCell id="wXAxOGZ1mU8DHfjWl0_P-90" value="" style="line;strokeWidth=1;fillColor=none;align=left;verticalAlign=middle;spacingTop=-1;spacingLeft=3;spacingRight=3;rotatable=0;labelPosition=right;points=[];portConstraint=eastwest;strokeColor=inherit;" parent="wXAxOGZ1mU8DHfjWl0_P-86" vertex="1">
          <mxGeometry y="286" width="160" height="8" as="geometry" />
        </mxCell>
        <mxCell id="wXAxOGZ1mU8DHfjWl0_P-91" value="+ method(type): type" style="text;strokeColor=none;fillColor=none;align=left;verticalAlign=top;spacingLeft=4;spacingRight=4;overflow=hidden;rotatable=0;points=[[0,0.5],[1,0.5]];portConstraint=eastwest;whiteSpace=wrap;html=1;" parent="wXAxOGZ1mU8DHfjWl0_P-86" vertex="1">
          <mxGeometry y="294" width="160" height="26" as="geometry" />
        </mxCell>
        <mxCell id="wXAxOGZ1mU8DHfjWl0_P-99" value="Add-ons" style="swimlane;fontStyle=1;align=center;verticalAlign=top;childLayout=stackLayout;horizontal=1;startSize=26;horizontalStack=0;resizeParent=1;resizeParentMax=0;resizeLast=0;collapsible=1;marginBottom=0;whiteSpace=wrap;html=1;" parent="1" vertex="1">
          <mxGeometry x="450" y="660" width="160" height="268" as="geometry" />
        </mxCell>
        <mxCell id="wXAxOGZ1mU8DHfjWl0_P-100" value="+ Spoilers: String" style="text;strokeColor=none;fillColor=none;align=left;verticalAlign=top;spacingLeft=4;spacingRight=4;overflow=hidden;rotatable=0;points=[[0,0.5],[1,0.5]];portConstraint=eastwest;whiteSpace=wrap;html=1;" parent="wXAxOGZ1mU8DHfjWl0_P-99" vertex="1">
          <mxGeometry y="26" width="160" height="26" as="geometry" />
        </mxCell>
        <mxCell id="wXAxOGZ1mU8DHfjWl0_P-101" value="+ Rims: String" style="text;strokeColor=none;fillColor=none;align=left;verticalAlign=top;spacingLeft=4;spacingRight=4;overflow=hidden;rotatable=0;points=[[0,0.5],[1,0.5]];portConstraint=eastwest;whiteSpace=wrap;html=1;" parent="wXAxOGZ1mU8DHfjWl0_P-99" vertex="1">
          <mxGeometry y="52" width="160" height="26" as="geometry" />
        </mxCell>
        <mxCell id="wXAxOGZ1mU8DHfjWl0_P-106" value="+ Wrap: String" style="text;strokeColor=none;fillColor=none;align=left;verticalAlign=top;spacingLeft=4;spacingRight=4;overflow=hidden;rotatable=0;points=[[0,0.5],[1,0.5]];portConstraint=eastwest;whiteSpace=wrap;html=1;" parent="wXAxOGZ1mU8DHfjWl0_P-99" vertex="1">
          <mxGeometry y="78" width="160" height="26" as="geometry" />
        </mxCell>
        <mxCell id="wXAxOGZ1mU8DHfjWl0_P-105" value="+ Lining: String" style="text;strokeColor=none;fillColor=none;align=left;verticalAlign=top;spacingLeft=4;spacingRight=4;overflow=hidden;rotatable=0;points=[[0,0.5],[1,0.5]];portConstraint=eastwest;whiteSpace=wrap;html=1;" parent="wXAxOGZ1mU8DHfjWl0_P-99" vertex="1">
          <mxGeometry y="104" width="160" height="26" as="geometry" />
        </mxCell>
        <mxCell id="wXAxOGZ1mU8DHfjWl0_P-108" value="+ Varnish: String" style="text;strokeColor=none;fillColor=none;align=left;verticalAlign=top;spacingLeft=4;spacingRight=4;overflow=hidden;rotatable=0;points=[[0,0.5],[1,0.5]];portConstraint=eastwest;whiteSpace=wrap;html=1;" parent="wXAxOGZ1mU8DHfjWl0_P-99" vertex="1">
          <mxGeometry y="130" width="160" height="26" as="geometry" />
        </mxCell>
        <mxCell id="wXAxOGZ1mU8DHfjWl0_P-107" value="+ Tune: String" style="text;strokeColor=none;fillColor=none;align=left;verticalAlign=top;spacingLeft=4;spacingRight=4;overflow=hidden;rotatable=0;points=[[0,0.5],[1,0.5]];portConstraint=eastwest;whiteSpace=wrap;html=1;" parent="wXAxOGZ1mU8DHfjWl0_P-99" vertex="1">
          <mxGeometry y="156" width="160" height="26" as="geometry" />
        </mxCell>
        <mxCell id="wXAxOGZ1mU8DHfjWl0_P-110" value="+ Tints:&amp;nbsp;" style="text;strokeColor=none;fillColor=none;align=left;verticalAlign=top;spacingLeft=4;spacingRight=4;overflow=hidden;rotatable=0;points=[[0,0.5],[1,0.5]];portConstraint=eastwest;whiteSpace=wrap;html=1;" parent="wXAxOGZ1mU8DHfjWl0_P-99" vertex="1">
          <mxGeometry y="182" width="160" height="26" as="geometry" />
        </mxCell>
        <mxCell id="wXAxOGZ1mU8DHfjWl0_P-109" value="+ RoofRack: bool" style="text;strokeColor=none;fillColor=none;align=left;verticalAlign=top;spacingLeft=4;spacingRight=4;overflow=hidden;rotatable=0;points=[[0,0.5],[1,0.5]];portConstraint=eastwest;whiteSpace=wrap;html=1;" parent="wXAxOGZ1mU8DHfjWl0_P-99" vertex="1">
          <mxGeometry y="208" width="160" height="26" as="geometry" />
        </mxCell>
        <mxCell id="wXAxOGZ1mU8DHfjWl0_P-103" value="" style="line;strokeWidth=1;fillColor=none;align=left;verticalAlign=middle;spacingTop=-1;spacingLeft=3;spacingRight=3;rotatable=0;labelPosition=right;points=[];portConstraint=eastwest;strokeColor=inherit;" parent="wXAxOGZ1mU8DHfjWl0_P-99" vertex="1">
          <mxGeometry y="234" width="160" height="8" as="geometry" />
        </mxCell>
        <mxCell id="wXAxOGZ1mU8DHfjWl0_P-104" value="+ method(type): type" style="text;strokeColor=none;fillColor=none;align=left;verticalAlign=top;spacingLeft=4;spacingRight=4;overflow=hidden;rotatable=0;points=[[0,0.5],[1,0.5]];portConstraint=eastwest;whiteSpace=wrap;html=1;" parent="wXAxOGZ1mU8DHfjWl0_P-99" vertex="1">
          <mxGeometry y="242" width="160" height="26" as="geometry" />
        </mxCell>
        <mxCell id="TTiPwi2FUxcAyR1wRSIf-1" value="CarFactory" style="swimlane;fontStyle=1;align=center;verticalAlign=top;childLayout=stackLayout;horizontal=1;startSize=26;horizontalStack=0;resizeParent=1;resizeParentMax=0;resizeLast=0;collapsible=1;marginBottom=0;whiteSpace=wrap;html=1;" parent="1" vertex="1">
          <mxGeometry x="50" y="220" width="160" height="86" as="geometry" />
        </mxCell>
        <mxCell id="TTiPwi2FUxcAyR1wRSIf-2" value="+ field: type" style="text;strokeColor=none;fillColor=none;align=left;verticalAlign=top;spacingLeft=4;spacingRight=4;overflow=hidden;rotatable=0;points=[[0,0.5],[1,0.5]];portConstraint=eastwest;whiteSpace=wrap;html=1;" parent="TTiPwi2FUxcAyR1wRSIf-1" vertex="1">
          <mxGeometry y="26" width="160" height="26" as="geometry" />
        </mxCell>
        <mxCell id="TTiPwi2FUxcAyR1wRSIf-3" value="" style="line;strokeWidth=1;fillColor=none;align=left;verticalAlign=middle;spacingTop=-1;spacingLeft=3;spacingRight=3;rotatable=0;labelPosition=right;points=[];portConstraint=eastwest;strokeColor=inherit;" parent="TTiPwi2FUxcAyR1wRSIf-1" vertex="1">
          <mxGeometry y="52" width="160" height="8" as="geometry" />
        </mxCell>
        <mxCell id="TTiPwi2FUxcAyR1wRSIf-4" value="+ method(type): type" style="text;strokeColor=none;fillColor=none;align=left;verticalAlign=top;spacingLeft=4;spacingRight=4;overflow=hidden;rotatable=0;points=[[0,0.5],[1,0.5]];portConstraint=eastwest;whiteSpace=wrap;html=1;" parent="TTiPwi2FUxcAyR1wRSIf-1" vertex="1">
          <mxGeometry y="60" width="160" height="26" as="geometry" />
        </mxCell>
        <mxCell id="6" value="Engine" style="swimlane;fontStyle=1;align=center;verticalAlign=top;childLayout=stackLayout;horizontal=1;startSize=26;horizontalStack=0;resizeParent=1;resizeParentMax=0;resizeLast=0;collapsible=1;marginBottom=0;whiteSpace=wrap;html=1;" parent="1" vertex="1">
          <mxGeometry x="40" y="660" width="160" height="86" as="geometry" />
        </mxCell>
        <mxCell id="8" value="+ Power: int" style="text;strokeColor=none;fillColor=none;align=left;verticalAlign=top;spacingLeft=4;spacingRight=4;overflow=hidden;rotatable=0;points=[[0,0.5],[1,0.5]];portConstraint=eastwest;whiteSpace=wrap;html=1;" parent="6" vertex="1">
          <mxGeometry y="26" width="160" height="26" as="geometry" />
        </mxCell>
        <mxCell id="10" value="" style="line;strokeWidth=1;fillColor=none;align=left;verticalAlign=middle;spacingTop=-1;spacingLeft=3;spacingRight=3;rotatable=0;labelPosition=right;points=[];portConstraint=eastwest;strokeColor=inherit;" parent="6" vertex="1">
          <mxGeometry y="52" width="160" height="8" as="geometry" />
        </mxCell>
        <mxCell id="11" value="&lt;span style=&quot;color: rgb(0, 0, 0);&quot;&gt;+ start(): Motor&lt;/span&gt;" style="text;strokeColor=none;fillColor=none;align=left;verticalAlign=top;spacingLeft=4;spacingRight=4;overflow=hidden;rotatable=0;points=[[0,0.5],[1,0.5]];portConstraint=eastwest;whiteSpace=wrap;html=1;" parent="6" vertex="1">
          <mxGeometry y="60" width="160" height="26" as="geometry" />
        </mxCell>
        <mxCell id="13" value="ElectricMotor" style="swimlane;fontStyle=1;align=center;verticalAlign=top;childLayout=stackLayout;horizontal=1;startSize=26;horizontalStack=0;resizeParent=1;resizeParentMax=0;resizeLast=0;collapsible=1;marginBottom=0;whiteSpace=wrap;html=1;" parent="1" vertex="1">
          <mxGeometry x="140" y="820" width="160" height="138" as="geometry" />
        </mxCell>
        <mxCell id="19" value="+ Battery content: int" style="text;strokeColor=none;fillColor=none;align=left;verticalAlign=top;spacingLeft=4;spacingRight=4;overflow=hidden;rotatable=0;points=[[0,0.5],[1,0.5]];portConstraint=eastwest;whiteSpace=wrap;html=1;" parent="13" vertex="1">
          <mxGeometry y="26" width="160" height="26" as="geometry" />
        </mxCell>
        <mxCell id="18" value="+&amp;nbsp;" style="text;strokeColor=none;fillColor=none;align=left;verticalAlign=top;spacingLeft=4;spacingRight=4;overflow=hidden;rotatable=0;points=[[0,0.5],[1,0.5]];portConstraint=eastwest;whiteSpace=wrap;html=1;" parent="13" vertex="1">
          <mxGeometry y="52" width="160" height="26" as="geometry" />
        </mxCell>
        <mxCell id="17" style="text;strokeColor=none;fillColor=none;align=left;verticalAlign=top;spacingLeft=4;spacingRight=4;overflow=hidden;rotatable=0;points=[[0,0.5],[1,0.5]];portConstraint=eastwest;whiteSpace=wrap;html=1;" parent="13" vertex="1">
          <mxGeometry y="78" width="160" height="26" as="geometry" />
        </mxCell>
        <mxCell id="15" value="" style="line;strokeWidth=1;fillColor=none;align=left;verticalAlign=middle;spacingTop=-1;spacingLeft=3;spacingRight=3;rotatable=0;labelPosition=right;points=[];portConstraint=eastwest;strokeColor=inherit;" parent="13" vertex="1">
          <mxGeometry y="104" width="160" height="8" as="geometry" />
        </mxCell>
        <mxCell id="16" value="&lt;span style=&quot;color: rgb(0, 0, 0);&quot;&gt;+ start(): Motor&lt;/span&gt;" style="text;strokeColor=none;fillColor=none;align=left;verticalAlign=top;spacingLeft=4;spacingRight=4;overflow=hidden;rotatable=0;points=[[0,0.5],[1,0.5]];portConstraint=eastwest;whiteSpace=wrap;html=1;" parent="13" vertex="1">
          <mxGeometry y="112" width="160" height="26" as="geometry" />
        </mxCell>
        <mxCell id="SK2XQCAht_XeuMIu3WPO-25" value="" style="endArrow=block;dashed=1;endFill=0;endSize=12;html=1;rounded=0;exitX=0.5;exitY=0;exitDx=0;exitDy=0;" parent="1" source="wXAxOGZ1mU8DHfjWl0_P-5" edge="1">
          <mxGeometry width="160" relative="1" as="geometry">
            <mxPoint x="170" y="560" as="sourcePoint" />
            <mxPoint x="440" y="530" as="targetPoint" />
            <Array as="points">
              <mxPoint x="318" y="610" />
              <mxPoint x="440" y="610" />
            </Array>
          </mxGeometry>
        </mxCell>
        <mxCell id="SK2XQCAht_XeuMIu3WPO-26" value="" style="endArrow=block;dashed=1;endFill=0;endSize=12;html=1;rounded=0;exitX=0.5;exitY=0;exitDx=0;exitDy=0;" parent="1" source="6" edge="1">
          <mxGeometry width="160" relative="1" as="geometry">
            <mxPoint x="170" y="580" as="sourcePoint" />
            <mxPoint x="440" y="530" as="targetPoint" />
            <Array as="points">
              <mxPoint x="120" y="610" />
              <mxPoint x="440" y="610" />
            </Array>
          </mxGeometry>
        </mxCell>
        <mxCell id="SK2XQCAht_XeuMIu3WPO-27" value="" style="endArrow=block;dashed=1;endFill=0;endSize=12;html=1;rounded=0;exitX=0.5;exitY=0;exitDx=0;exitDy=0;" parent="1" source="wXAxOGZ1mU8DHfjWl0_P-86" edge="1">
          <mxGeometry width="160" relative="1" as="geometry">
            <mxPoint x="660" y="610" as="sourcePoint" />
            <mxPoint x="440" y="530" as="targetPoint" />
            <Array as="points">
              <mxPoint x="760" y="610" />
              <mxPoint x="440" y="610" />
            </Array>
          </mxGeometry>
        </mxCell>
        <mxCell id="SK2XQCAht_XeuMIu3WPO-43" value="" style="endArrow=block;dashed=1;endFill=0;endSize=12;html=1;rounded=0;exitX=0.5;exitY=0;exitDx=0;exitDy=0;" parent="1" source="wXAxOGZ1mU8DHfjWl0_P-99" edge="1">
          <mxGeometry width="160" relative="1" as="geometry">
            <mxPoint x="290" y="650" as="sourcePoint" />
            <mxPoint x="440" y="530" as="targetPoint" />
            <Array as="points">
              <mxPoint x="530" y="610" />
              <mxPoint x="440" y="610" />
            </Array>
          </mxGeometry>
        </mxCell>
        <mxCell id="vIck6_L0lxmdJ7Mb4Cpp-23" value="CarModel" style="swimlane;fontStyle=1;align=center;verticalAlign=top;childLayout=stackLayout;horizontal=1;startSize=26;horizontalStack=0;resizeParent=1;resizeParentMax=0;resizeLast=0;collapsible=1;marginBottom=0;whiteSpace=wrap;html=1;" vertex="1" parent="1">
          <mxGeometry x="50" y="380" width="160" height="86" as="geometry" />
        </mxCell>
        <mxCell id="vIck6_L0lxmdJ7Mb4Cpp-24" value="+ field: type" style="text;strokeColor=none;fillColor=none;align=left;verticalAlign=top;spacingLeft=4;spacingRight=4;overflow=hidden;rotatable=0;points=[[0,0.5],[1,0.5]];portConstraint=eastwest;whiteSpace=wrap;html=1;" vertex="1" parent="vIck6_L0lxmdJ7Mb4Cpp-23">
          <mxGeometry y="26" width="160" height="26" as="geometry" />
        </mxCell>
        <mxCell id="vIck6_L0lxmdJ7Mb4Cpp-25" value="" style="line;strokeWidth=1;fillColor=none;align=left;verticalAlign=middle;spacingTop=-1;spacingLeft=3;spacingRight=3;rotatable=0;labelPosition=right;points=[];portConstraint=eastwest;strokeColor=inherit;" vertex="1" parent="vIck6_L0lxmdJ7Mb4Cpp-23">
          <mxGeometry y="52" width="160" height="8" as="geometry" />
        </mxCell>
        <mxCell id="vIck6_L0lxmdJ7Mb4Cpp-26" value="+ method(type): type" style="text;strokeColor=none;fillColor=none;align=left;verticalAlign=top;spacingLeft=4;spacingRight=4;overflow=hidden;rotatable=0;points=[[0,0.5],[1,0.5]];portConstraint=eastwest;whiteSpace=wrap;html=1;" vertex="1" parent="vIck6_L0lxmdJ7Mb4Cpp-23">
          <mxGeometry y="60" width="160" height="26" as="geometry" />
        </mxCell>
        <mxCell id="vIck6_L0lxmdJ7Mb4Cpp-28" value="" style="endArrow=block;dashed=1;endFill=0;endSize=12;html=1;rounded=0;entryX=0.5;entryY=0;entryDx=0;entryDy=0;" edge="1" parent="1" target="wXAxOGZ1mU8DHfjWl0_P-30">
          <mxGeometry width="160" relative="1" as="geometry">
            <mxPoint x="210" y="234" as="sourcePoint" />
            <mxPoint x="370" y="234" as="targetPoint" />
            <Array as="points">
              <mxPoint x="440" y="234" />
            </Array>
          </mxGeometry>
        </mxCell>
        <mxCell id="vIck6_L0lxmdJ7Mb4Cpp-29" value="" style="endArrow=open;endSize=12;dashed=1;html=1;rounded=0;exitX=0.504;exitY=1.077;exitDx=0;exitDy=0;exitPerimeter=0;entryX=0.5;entryY=0;entryDx=0;entryDy=0;" edge="1" parent="1" source="TTiPwi2FUxcAyR1wRSIf-4" target="vIck6_L0lxmdJ7Mb4Cpp-23">
          <mxGeometry width="160" relative="1" as="geometry">
            <mxPoint x="90" y="360" as="sourcePoint" />
            <mxPoint x="250" y="360" as="targetPoint" />
          </mxGeometry>
        </mxCell>
        <mxCell id="vIck6_L0lxmdJ7Mb4Cpp-30" value="" style="endArrow=block;endSize=16;endFill=0;html=1;rounded=0;" edge="1" parent="1">
          <mxGeometry width="160" relative="1" as="geometry">
            <mxPoint x="-20" y="-54" as="sourcePoint" />
            <mxPoint x="-130" y="-53.71000000000001" as="targetPoint" />
          </mxGeometry>
        </mxCell>
        <mxCell id="vIck6_L0lxmdJ7Mb4Cpp-31" value="" style="endArrow=block;endSize=16;endFill=0;html=1;rounded=0;" edge="1" parent="1">
          <mxGeometry width="160" relative="1" as="geometry">
            <mxPoint x="-20" y="56.29" as="sourcePoint" />
            <mxPoint x="-130" y="56.57999999999999" as="targetPoint" />
          </mxGeometry>
        </mxCell>
        <mxCell id="vIck6_L0lxmdJ7Mb4Cpp-32" value="" style="endArrow=block;endSize=16;endFill=0;html=1;rounded=0;" edge="1" parent="1">
          <mxGeometry width="160" relative="1" as="geometry">
            <mxPoint x="-20" y="166.29" as="sourcePoint" />
            <mxPoint x="-130" y="166.57999999999998" as="targetPoint" />
          </mxGeometry>
        </mxCell>
        <mxCell id="vIck6_L0lxmdJ7Mb4Cpp-33" value="" style="endArrow=block;endSize=16;endFill=0;html=1;rounded=0;" edge="1" parent="1">
          <mxGeometry width="160" relative="1" as="geometry">
            <mxPoint x="-20" y="276.29" as="sourcePoint" />
            <mxPoint x="-130" y="276.58" as="targetPoint" />
          </mxGeometry>
        </mxCell>
        <mxCell id="vIck6_L0lxmdJ7Mb4Cpp-34" value="" style="endArrow=block;endSize=16;endFill=0;html=1;rounded=0;" edge="1" parent="1">
          <mxGeometry width="160" relative="1" as="geometry">
            <mxPoint x="-20" y="380" as="sourcePoint" />
            <mxPoint x="-130" y="380.28999999999996" as="targetPoint" />
          </mxGeometry>
        </mxCell>
        <mxCell id="vIck6_L0lxmdJ7Mb4Cpp-35" value="" style="endArrow=block;endSize=16;endFill=0;html=1;rounded=0;" edge="1" parent="1">
          <mxGeometry width="160" relative="1" as="geometry">
            <mxPoint x="-20" y="496.28999999999996" as="sourcePoint" />
            <mxPoint x="-130" y="496.5799999999999" as="targetPoint" />
          </mxGeometry>
        </mxCell>
        <mxCell id="vIck6_L0lxmdJ7Mb4Cpp-36" value="" style="endArrow=block;endSize=16;endFill=0;html=1;rounded=0;" edge="1" parent="1">
          <mxGeometry width="160" relative="1" as="geometry">
            <mxPoint x="-20" y="610" as="sourcePoint" />
            <mxPoint x="-130" y="610.29" as="targetPoint" />
          </mxGeometry>
        </mxCell>
        <mxCell id="vIck6_L0lxmdJ7Mb4Cpp-37" value="" style="endArrow=block;endSize=16;endFill=0;html=1;rounded=0;" edge="1" parent="1">
          <mxGeometry width="160" relative="1" as="geometry">
            <mxPoint x="-20" y="713.29" as="sourcePoint" />
            <mxPoint x="-130" y="713.5799999999999" as="targetPoint" />
          </mxGeometry>
        </mxCell>
        <mxCell id="vIck6_L0lxmdJ7Mb4Cpp-38" value="" style="endArrow=block;endSize=16;endFill=0;html=1;rounded=0;" edge="1" parent="1">
          <mxGeometry width="160" relative="1" as="geometry">
            <mxPoint x="-50" y="831" as="sourcePoint" />
            <mxPoint x="-130" y="830.5799999999999" as="targetPoint" />
          </mxGeometry>
        </mxCell>
        <mxCell id="vIck6_L0lxmdJ7Mb4Cpp-39" value="" style="endArrow=block;endSize=16;endFill=0;html=1;rounded=0;" edge="1" parent="1">
          <mxGeometry width="160" relative="1" as="geometry">
            <mxPoint x="-50" y="937" as="sourcePoint" />
            <mxPoint x="-130" y="936.5799999999999" as="targetPoint" />
          </mxGeometry>
        </mxCell>
        <mxCell id="vIck6_L0lxmdJ7Mb4Cpp-41" value="" style="endArrow=none;html=1;rounded=0;entryX=0;entryY=0.5;entryDx=0;entryDy=0;" edge="1" parent="1" target="vIck6_L0lxmdJ7Mb4Cpp-24">
          <mxGeometry width="50" height="50" relative="1" as="geometry">
            <mxPoint x="-20" y="380" as="sourcePoint" />
            <mxPoint x="60" y="-40" as="targetPoint" />
            <Array as="points">
              <mxPoint x="-20" y="419" />
            </Array>
          </mxGeometry>
        </mxCell>
        <mxCell id="vIck6_L0lxmdJ7Mb4Cpp-42" value="" style="endArrow=none;html=1;rounded=0;" edge="1" parent="1">
          <mxGeometry width="50" height="50" relative="1" as="geometry">
            <mxPoint x="-20" y="380" as="sourcePoint" />
            <mxPoint x="-20" y="-50" as="targetPoint" />
          </mxGeometry>
        </mxCell>
        <mxCell id="vIck6_L0lxmdJ7Mb4Cpp-43" value="" style="endArrow=none;html=1;rounded=0;" edge="1" parent="1">
          <mxGeometry width="50" height="50" relative="1" as="geometry">
            <mxPoint x="-20" y="710" as="sourcePoint" />
            <mxPoint x="-20" y="420" as="targetPoint" />
          </mxGeometry>
        </mxCell>
        <mxCell id="vIck6_L0lxmdJ7Mb4Cpp-44" value="" style="endArrow=none;html=1;rounded=0;" edge="1" parent="1">
          <mxGeometry width="50" height="50" relative="1" as="geometry">
            <mxPoint x="-50" y="930" as="sourcePoint" />
            <mxPoint x="-20" y="710" as="targetPoint" />
            <Array as="points">
              <mxPoint x="-50" y="760" />
              <mxPoint x="-20" y="760" />
            </Array>
          </mxGeometry>
        </mxCell>
        <mxCell id="vIck6_L0lxmdJ7Mb4Cpp-45" value="" style="endArrow=block;dashed=1;endFill=0;endSize=12;html=1;rounded=0;entryX=0.538;entryY=1.013;entryDx=0;entryDy=0;entryPerimeter=0;" edge="1" parent="1" target="11">
          <mxGeometry width="160" relative="1" as="geometry">
            <mxPoint x="126" y="780" as="sourcePoint" />
            <mxPoint x="250" y="790" as="targetPoint" />
          </mxGeometry>
        </mxCell>
        <mxCell id="vIck6_L0lxmdJ7Mb4Cpp-46" value="" style="endArrow=none;dashed=1;html=1;rounded=0;exitX=0.5;exitY=0;exitDx=0;exitDy=0;" edge="1" parent="1" source="wXAxOGZ1mU8DHfjWl0_P-1">
          <mxGeometry width="50" height="50" relative="1" as="geometry">
            <mxPoint x="140" y="810" as="sourcePoint" />
            <mxPoint x="130" y="780" as="targetPoint" />
            <Array as="points">
              <mxPoint x="50" y="780" />
            </Array>
          </mxGeometry>
        </mxCell>
        <mxCell id="vIck6_L0lxmdJ7Mb4Cpp-47" value="" style="endArrow=none;dashed=1;html=1;rounded=0;exitX=0.5;exitY=0;exitDx=0;exitDy=0;" edge="1" parent="1" source="13">
          <mxGeometry width="50" height="50" relative="1" as="geometry">
            <mxPoint x="140" y="810" as="sourcePoint" />
            <mxPoint x="130" y="780" as="targetPoint" />
            <Array as="points">
              <mxPoint x="220" y="780" />
            </Array>
          </mxGeometry>
        </mxCell>
        <mxCell id="vIck6_L0lxmdJ7Mb4Cpp-48" value="App" style="swimlane;fontStyle=1;align=center;verticalAlign=top;childLayout=stackLayout;horizontal=1;startSize=26;horizontalStack=0;resizeParent=1;resizeParentMax=0;resizeLast=0;collapsible=1;marginBottom=0;whiteSpace=wrap;html=1;" vertex="1" parent="1">
          <mxGeometry x="620" y="388" width="160" height="86" as="geometry" />
        </mxCell>
        <mxCell id="vIck6_L0lxmdJ7Mb4Cpp-49" value="+ field: type" style="text;strokeColor=none;fillColor=none;align=left;verticalAlign=top;spacingLeft=4;spacingRight=4;overflow=hidden;rotatable=0;points=[[0,0.5],[1,0.5]];portConstraint=eastwest;whiteSpace=wrap;html=1;" vertex="1" parent="vIck6_L0lxmdJ7Mb4Cpp-48">
          <mxGeometry y="26" width="160" height="26" as="geometry" />
        </mxCell>
        <mxCell id="vIck6_L0lxmdJ7Mb4Cpp-50" value="" style="line;strokeWidth=1;fillColor=none;align=left;verticalAlign=middle;spacingTop=-1;spacingLeft=3;spacingRight=3;rotatable=0;labelPosition=right;points=[];portConstraint=eastwest;strokeColor=inherit;" vertex="1" parent="vIck6_L0lxmdJ7Mb4Cpp-48">
          <mxGeometry y="52" width="160" height="8" as="geometry" />
        </mxCell>
        <mxCell id="vIck6_L0lxmdJ7Mb4Cpp-51" value="+ method(type): type" style="text;strokeColor=none;fillColor=none;align=left;verticalAlign=top;spacingLeft=4;spacingRight=4;overflow=hidden;rotatable=0;points=[[0,0.5],[1,0.5]];portConstraint=eastwest;whiteSpace=wrap;html=1;" vertex="1" parent="vIck6_L0lxmdJ7Mb4Cpp-48">
          <mxGeometry y="60" width="160" height="26" as="geometry" />
        </mxCell>
        <mxCell id="vIck6_L0lxmdJ7Mb4Cpp-52" value="" style="endArrow=open;endSize=12;dashed=1;html=1;rounded=0;exitX=0;exitY=0.5;exitDx=0;exitDy=0;entryX=1;entryY=0.5;entryDx=0;entryDy=0;" edge="1" parent="1" source="vIck6_L0lxmdJ7Mb4Cpp-49" target="wXAxOGZ1mU8DHfjWl0_P-111">
          <mxGeometry width="160" relative="1" as="geometry">
            <mxPoint x="190" y="470" as="sourcePoint" />
            <mxPoint x="350" y="470" as="targetPoint" />
          </mxGeometry>
        </mxCell>
        <mxCell id="vIck6_L0lxmdJ7Mb4Cpp-53" value="Car" style="html=1;whiteSpace=wrap;" vertex="1" parent="1">
          <mxGeometry x="200" y="1110" width="110" height="50" as="geometry" />
        </mxCell>
        <mxCell id="vIck6_L0lxmdJ7Mb4Cpp-54" value="Engine" style="html=1;whiteSpace=wrap;" vertex="1" parent="1">
          <mxGeometry x="360" y="1110" width="110" height="50" as="geometry" />
        </mxCell>
        <mxCell id="vIck6_L0lxmdJ7Mb4Cpp-56" value="" style="endArrow=diamond;html=1;rounded=0;exitX=-0.006;exitY=0.343;exitDx=0;exitDy=0;entryX=0.991;entryY=0.344;entryDx=0;entryDy=0;entryPerimeter=0;edgeStyle=orthogonalEdgeStyle;endFill=0;exitPerimeter=0;" edge="1" parent="1" source="vIck6_L0lxmdJ7Mb4Cpp-54" target="vIck6_L0lxmdJ7Mb4Cpp-53">
          <mxGeometry width="50" height="50" relative="1" as="geometry">
            <mxPoint x="300" y="1080" as="sourcePoint" />
            <mxPoint x="350" y="1030" as="targetPoint" />
          </mxGeometry>
        </mxCell>
        <mxCell id="vIck6_L0lxmdJ7Mb4Cpp-57" value="Chassis" style="html=1;whiteSpace=wrap;" vertex="1" parent="1">
          <mxGeometry x="50" y="1110" width="110" height="50" as="geometry" />
        </mxCell>
        <mxCell id="vIck6_L0lxmdJ7Mb4Cpp-58" value="" style="endArrow=diamond;html=1;rounded=0;exitX=1;exitY=0.25;exitDx=0;exitDy=0;entryX=0;entryY=0.25;entryDx=0;entryDy=0;edgeStyle=orthogonalEdgeStyle;endFill=0;" edge="1" parent="1" source="vIck6_L0lxmdJ7Mb4Cpp-57" target="vIck6_L0lxmdJ7Mb4Cpp-53">
          <mxGeometry width="50" height="50" relative="1" as="geometry">
            <mxPoint x="237.5" y="1200" as="sourcePoint" />
            <mxPoint x="137.5" y="1200" as="targetPoint" />
          </mxGeometry>
        </mxCell>
        <mxCell id="vIck6_L0lxmdJ7Mb4Cpp-59" value="Client" style="html=1;whiteSpace=wrap;" vertex="1" parent="1">
          <mxGeometry x="-100" y="1240" width="120" height="40" as="geometry" />
        </mxCell>
        <mxCell id="vIck6_L0lxmdJ7Mb4Cpp-60" value="Trader&lt;div&gt;+SellPart()&lt;/div&gt;&lt;div&gt;+s:SellStrategy&lt;/div&gt;" style="html=1;whiteSpace=wrap;" vertex="1" parent="1">
          <mxGeometry x="360" y="1240" width="120" height="40" as="geometry" />
        </mxCell>
        <mxCell id="vIck6_L0lxmdJ7Mb4Cpp-61" value="Part" style="html=1;whiteSpace=wrap;" vertex="1" parent="1">
          <mxGeometry x="100" y="1240" width="110" height="40" as="geometry" />
        </mxCell>
        <mxCell id="vIck6_L0lxmdJ7Mb4Cpp-62" style="edgeStyle=orthogonalEdgeStyle;rounded=0;orthogonalLoop=1;jettySize=auto;html=1;exitX=0.5;exitY=1;exitDx=0;exitDy=0;" edge="1" parent="1" source="vIck6_L0lxmdJ7Mb4Cpp-61" target="vIck6_L0lxmdJ7Mb4Cpp-61">
          <mxGeometry relative="1" as="geometry" />
        </mxCell>
        <mxCell id="vIck6_L0lxmdJ7Mb4Cpp-63" value="" style="endArrow=open;html=1;rounded=0;exitX=0;exitY=0.5;exitDx=0;exitDy=0;entryX=1;entryY=0.5;entryDx=0;entryDy=0;dashed=1;dashPattern=8 8;endFill=0;" edge="1" parent="1" source="vIck6_L0lxmdJ7Mb4Cpp-60" target="vIck6_L0lxmdJ7Mb4Cpp-61">
          <mxGeometry width="50" height="50" relative="1" as="geometry">
            <mxPoint x="220" y="1320" as="sourcePoint" />
            <mxPoint x="270" y="1270" as="targetPoint" />
          </mxGeometry>
        </mxCell>
        <mxCell id="vIck6_L0lxmdJ7Mb4Cpp-64" value="Sells" style="edgeLabel;html=1;align=center;verticalAlign=middle;resizable=0;points=[];" vertex="1" connectable="0" parent="vIck6_L0lxmdJ7Mb4Cpp-63">
          <mxGeometry x="-0.0444" y="-1" relative="1" as="geometry">
            <mxPoint as="offset" />
          </mxGeometry>
        </mxCell>
        <mxCell id="vIck6_L0lxmdJ7Mb4Cpp-65" value="Tire" style="html=1;whiteSpace=wrap;" vertex="1" parent="1">
          <mxGeometry x="-40" y="1320" width="110" height="40" as="geometry" />
        </mxCell>
        <mxCell id="vIck6_L0lxmdJ7Mb4Cpp-66" value="Exhaust" style="html=1;whiteSpace=wrap;" vertex="1" parent="1">
          <mxGeometry x="100" y="1320" width="110" height="40" as="geometry" />
        </mxCell>
        <mxCell id="vIck6_L0lxmdJ7Mb4Cpp-67" value="Engine" style="html=1;whiteSpace=wrap;" vertex="1" parent="1">
          <mxGeometry x="237.5" y="1320" width="110" height="40" as="geometry" />
        </mxCell>
        <mxCell id="vIck6_L0lxmdJ7Mb4Cpp-68" value="" style="endArrow=block;html=1;rounded=0;exitX=0.5;exitY=0;exitDx=0;exitDy=0;entryX=0.5;entryY=1;entryDx=0;entryDy=0;endFill=0;" edge="1" parent="1" source="vIck6_L0lxmdJ7Mb4Cpp-66" target="vIck6_L0lxmdJ7Mb4Cpp-61">
          <mxGeometry width="50" height="50" relative="1" as="geometry">
            <mxPoint x="220" y="1320" as="sourcePoint" />
            <mxPoint x="270" y="1270" as="targetPoint" />
          </mxGeometry>
        </mxCell>
        <mxCell id="vIck6_L0lxmdJ7Mb4Cpp-69" value="" style="endArrow=block;html=1;rounded=0;exitX=0.5;exitY=0;exitDx=0;exitDy=0;entryX=0.5;entryY=1;entryDx=0;entryDy=0;endFill=0;edgeStyle=orthogonalEdgeStyle;" edge="1" parent="1" source="vIck6_L0lxmdJ7Mb4Cpp-67" target="vIck6_L0lxmdJ7Mb4Cpp-61">
          <mxGeometry width="50" height="50" relative="1" as="geometry">
            <mxPoint x="220" y="1320" as="sourcePoint" />
            <mxPoint x="270" y="1270" as="targetPoint" />
          </mxGeometry>
        </mxCell>
        <mxCell id="vIck6_L0lxmdJ7Mb4Cpp-70" value="" style="endArrow=block;html=1;rounded=0;exitX=0.5;exitY=0;exitDx=0;exitDy=0;entryX=0.5;entryY=1;entryDx=0;entryDy=0;endFill=0;edgeStyle=orthogonalEdgeStyle;" edge="1" parent="1" source="vIck6_L0lxmdJ7Mb4Cpp-65" target="vIck6_L0lxmdJ7Mb4Cpp-61">
          <mxGeometry width="50" height="50" relative="1" as="geometry">
            <mxPoint x="220" y="1320" as="sourcePoint" />
            <mxPoint x="270" y="1270" as="targetPoint" />
          </mxGeometry>
        </mxCell>
        <mxCell id="vIck6_L0lxmdJ7Mb4Cpp-71" value="" style="endArrow=open;html=1;rounded=0;exitX=1;exitY=0.5;exitDx=0;exitDy=0;entryX=0;entryY=0.5;entryDx=0;entryDy=0;dashed=1;dashPattern=8 8;endFill=0;" edge="1" parent="1" source="vIck6_L0lxmdJ7Mb4Cpp-59" target="vIck6_L0lxmdJ7Mb4Cpp-61">
          <mxGeometry width="50" height="50" relative="1" as="geometry">
            <mxPoint x="380" y="1250" as="sourcePoint" />
            <mxPoint x="230" y="1250" as="targetPoint" />
          </mxGeometry>
        </mxCell>
        <mxCell id="vIck6_L0lxmdJ7Mb4Cpp-72" value="buys" style="edgeLabel;html=1;align=center;verticalAlign=middle;resizable=0;points=[];" vertex="1" connectable="0" parent="vIck6_L0lxmdJ7Mb4Cpp-71">
          <mxGeometry x="-0.0444" y="-1" relative="1" as="geometry">
            <mxPoint as="offset" />
          </mxGeometry>
        </mxCell>
        <mxCell id="vIck6_L0lxmdJ7Mb4Cpp-75" value="SellStrategy" style="html=1;whiteSpace=wrap;" vertex="1" parent="1">
          <mxGeometry x="560" y="1240" width="120" height="40" as="geometry" />
        </mxCell>
        <mxCell id="vIck6_L0lxmdJ7Mb4Cpp-76" value="Internet" style="html=1;whiteSpace=wrap;" vertex="1" parent="1">
          <mxGeometry x="426.25" y="1320" width="110" height="40" as="geometry" />
        </mxCell>
        <mxCell id="vIck6_L0lxmdJ7Mb4Cpp-77" value="Shop" style="html=1;whiteSpace=wrap;" vertex="1" parent="1">
          <mxGeometry x="566.25" y="1320" width="110" height="40" as="geometry" />
        </mxCell>
        <mxCell id="vIck6_L0lxmdJ7Mb4Cpp-78" value="Street" style="html=1;whiteSpace=wrap;" vertex="1" parent="1">
          <mxGeometry x="703.75" y="1320" width="110" height="40" as="geometry" />
        </mxCell>
        <mxCell id="vIck6_L0lxmdJ7Mb4Cpp-79" value="" style="endArrow=block;html=1;rounded=0;exitX=0.5;exitY=0;exitDx=0;exitDy=0;entryX=0.5;entryY=1;entryDx=0;entryDy=0;endFill=0;edgeStyle=orthogonalEdgeStyle;" edge="1" parent="1" source="vIck6_L0lxmdJ7Mb4Cpp-78">
          <mxGeometry width="50" height="50" relative="1" as="geometry">
            <mxPoint x="686.25" y="1320" as="sourcePoint" />
            <mxPoint x="621.25" y="1280" as="targetPoint" />
          </mxGeometry>
        </mxCell>
        <mxCell id="vIck6_L0lxmdJ7Mb4Cpp-80" value="" style="endArrow=block;html=1;rounded=0;exitX=0.5;exitY=0;exitDx=0;exitDy=0;entryX=0.5;entryY=1;entryDx=0;entryDy=0;endFill=0;edgeStyle=orthogonalEdgeStyle;" edge="1" parent="1" source="vIck6_L0lxmdJ7Mb4Cpp-76">
          <mxGeometry width="50" height="50" relative="1" as="geometry">
            <mxPoint x="686.25" y="1320" as="sourcePoint" />
            <mxPoint x="621.25" y="1280" as="targetPoint" />
          </mxGeometry>
        </mxCell>
        <mxCell id="vIck6_L0lxmdJ7Mb4Cpp-81" value="" style="endArrow=diamond;html=1;rounded=0;exitX=0;exitY=0.5;exitDx=0;exitDy=0;entryX=1;entryY=0.5;entryDx=0;entryDy=0;edgeStyle=orthogonalEdgeStyle;endFill=0;" edge="1" parent="1" source="vIck6_L0lxmdJ7Mb4Cpp-75" target="vIck6_L0lxmdJ7Mb4Cpp-60">
          <mxGeometry width="50" height="50" relative="1" as="geometry">
            <mxPoint x="380" y="1120" as="sourcePoint" />
            <mxPoint x="330" y="1120" as="targetPoint" />
            <Array as="points">
              <mxPoint x="540" y="1260" />
              <mxPoint x="540" y="1260" />
            </Array>
          </mxGeometry>
        </mxCell>
      </root>
    </mxGraphModel>
  </diagram>
</mxfile>
